<svg width="128" height="128" viewBox="0 0 128 128" fill="none" xmlns="http://www.w3.org/2000/svg">
<rect width="128" height="128" fill="#1D5342"/>
<path d="M76.1289 29.697V42.069C76.1289 43.5479 74.9304 44.7464 73.4515 44.7464H54.5446C53.0657 44.7464 51.8672 43.5479 51.8672 42.069V29.6953C41.378 34.3607 34.0469 44.8866 34.0469 57.0918C34.0469 81.7074 61.0144 105.747 62.1661 106.757C62.6836 107.216 63.3429 107.45 63.9939 107.45C64.6449 107.45 65.3042 107.216 65.83 106.757C66.9817 105.747 93.9509 81.7074 93.9509 57.0918C93.9509 44.8866 86.6198 34.3624 76.1289 29.697ZM69.4788 86.6782C69.4788 87.2708 68.9981 87.7532 68.4039 87.7532H59.5922C58.998 87.7532 58.5172 87.2708 58.5172 86.6782V83.9524C58.5172 83.3599 58.998 82.8775 59.5922 82.8775H68.4039C68.9981 82.8775 69.4788 83.3599 69.4788 83.9524V86.6782ZM76.1189 66.6112C76.0571 67.3189 75.8168 67.9699 75.4212 68.5625C74.4981 69.9462 73.55 71.3133 72.6002 72.6787C72.3682 73.0109 72.1379 73.343 71.9075 73.6752C71.2899 74.5649 70.6923 75.4679 70.1582 76.4043C69.6357 77.3174 69.17 78.2655 68.8028 79.2653C68.7377 79.4423 68.454 79.6509 68.272 79.6526C65.4277 79.676 62.5817 79.6743 59.7341 79.6543C59.5588 79.6526 59.2801 79.484 59.225 79.3304C58.8611 78.3005 58.3904 77.3341 57.8579 76.4043C57.1185 75.1141 56.2572 73.8972 55.3959 72.6787C55.2089 72.415 55.022 72.1512 54.8367 71.8892C54.0538 70.7725 53.296 69.6408 52.5566 68.4974C52.0858 67.7679 51.8505 66.9667 51.8805 66.0921V66.0871C51.9773 65.2508 52.4714 64.538 53.1692 64.1391C53.5497 63.9204 53.9887 63.7953 54.4578 63.7953H73.5316C74.0007 63.7953 74.438 63.9204 74.8186 64.1391C75.5464 64.5531 76.0521 65.3109 76.1189 66.1905V66.6112ZM76.1289 57.873C76.1289 59.3519 74.9304 60.5503 73.4515 60.5503H54.5446C53.0657 60.5503 51.8672 59.3519 51.8672 57.873V50.6203C51.8672 49.1414 53.0657 47.9429 54.5446 47.9429H73.4515C74.9304 47.9429 76.1289 49.1414 76.1289 50.6203V57.873Z" fill="white"/>
<path d="M76.1289 23.1618V29.6967C72.4183 28.0442 68.3104 27.1261 63.9939 27.1261C59.6773 27.1261 55.5761 28.0442 51.8672 29.695V23.1618C51.8672 21.6829 53.0657 20.4844 54.5446 20.4844H73.4515C74.9304 20.4844 76.1289 21.6829 76.1289 23.1618Z" fill="white"/>
</svg>
