<svg width="154" height="35" viewBox="0 0 154 35" fill="none" xmlns="http://www.w3.org/2000/svg">
<path d="M16.8598 3.68817V8.64492C16.8598 9.23743 16.3796 9.71759 15.7871 9.71759H8.21222C7.61971 9.71759 7.13955 9.23743 7.13955 8.64492V3.6875C2.93714 5.55665 0 9.77377 0 14.6636C0 24.5257 10.8043 34.157 11.2657 34.5616C11.473 34.7455 11.7372 34.8391 11.998 34.8391C12.2588 34.8391 12.523 34.7455 12.7336 34.5616C13.1951 34.157 24 24.5257 24 14.6636C24 9.77377 21.0629 5.55732 16.8598 3.68817ZM14.1955 26.5172C14.1955 26.7546 14.0029 26.9479 13.7648 26.9479H10.2345C9.99643 26.9479 9.80383 26.7546 9.80383 26.5172V25.4251C9.80383 25.1877 9.99643 24.9945 10.2345 24.9945H13.7648C14.0029 24.9945 14.1955 25.1877 14.1955 25.4251V26.5172ZM16.8558 18.4775C16.831 18.7611 16.7347 19.0219 16.5762 19.2593C16.2064 19.8137 15.8266 20.3614 15.4461 20.9084C15.3531 21.0415 15.2608 21.1746 15.1685 21.3077C14.9211 21.6641 14.6817 22.0259 14.4677 22.4011C14.2584 22.7669 14.0718 23.1467 13.9247 23.5473C13.8986 23.6182 13.7849 23.7018 13.712 23.7024C12.5724 23.7118 11.4322 23.7111 10.2914 23.7031C10.2211 23.7024 10.1095 23.6349 10.0874 23.5734C9.9416 23.1608 9.75301 22.7735 9.53968 22.4011C9.24342 21.8841 8.89835 21.3966 8.55328 20.9084C8.47838 20.8027 8.40348 20.6971 8.32925 20.5921C8.0156 20.1447 7.71199 19.6913 7.41574 19.2332C7.22715 18.941 7.13286 18.62 7.1449 18.2695V18.2675C7.18368 17.9325 7.38163 17.6469 7.66117 17.4871C7.81364 17.3995 7.98952 17.3493 8.17744 17.3493H15.8192C16.0071 17.3493 16.1823 17.3995 16.3348 17.4871C16.6264 17.6529 16.829 17.9566 16.8558 18.309V18.4775ZM16.8598 14.9766C16.8598 15.5691 16.3796 16.0493 15.7871 16.0493H8.21222C7.61971 16.0493 7.13955 15.5691 7.13955 14.9766V12.0709C7.13955 11.4784 7.61971 10.9982 8.21222 10.9982H15.7871C16.3796 10.9982 16.8598 11.4784 16.8598 12.0709V14.9766Z" fill="#1D5342"/>
<path d="M16.8531 1.07267V3.69082C15.3664 3.02876 13.7206 2.66095 11.9913 2.66095C10.2619 2.66095 8.61877 3.02876 7.13281 3.69015V1.07267C7.13281 0.480161 7.61297 0 8.20548 0H15.7804C16.3729 0 16.8531 0.480161 16.8531 1.07267Z" fill="#1D5342"/>
<path d="M31.24 11.1819H37.3C38.8467 11.1819 40.0467 11.5885 40.9 12.4019C41.7533 13.2019 42.18 14.2952 42.18 15.6819C42.18 17.0552 41.7533 18.1485 40.9 18.9619C40.0467 19.7619 38.8467 20.1619 37.3 20.1619H33.38V25.4219H31.24V11.1819ZM33.38 18.2819H37.26C38.1533 18.2819 38.8333 18.0619 39.3 17.6219C39.7667 17.1685 40 16.5219 40 15.6819C40 14.8419 39.7667 14.1952 39.3 13.7419C38.8333 13.2885 38.1533 13.0619 37.26 13.0619H33.38V18.2819ZM45.6786 25.4219H43.6786V11.1819H45.6786V25.4219ZM56.7969 23.8819H57.3569V25.4219C57.0635 25.4619 56.7369 25.4819 56.3769 25.4819C55.7369 25.4819 55.2569 25.3685 54.9369 25.1419C54.6302 24.9019 54.4435 24.5285 54.3769 24.0219C53.6835 25.1152 52.5635 25.6619 51.0169 25.6619C49.8835 25.6619 48.9835 25.3952 48.3169 24.8619C47.6635 24.3152 47.3369 23.5619 47.3369 22.6019C47.3369 20.7352 48.6302 19.6685 51.2169 19.4019L52.7369 19.2419C53.2702 19.1752 53.6569 19.0419 53.8969 18.8419C54.1502 18.6285 54.2769 18.3285 54.2769 17.9419C54.2769 17.4219 54.1102 17.0485 53.7769 16.8219C53.4569 16.5819 52.9169 16.4619 52.1569 16.4619C51.3302 16.4619 50.7369 16.6019 50.3769 16.8819C50.0169 17.1485 49.8102 17.6285 49.7569 18.3219H47.7769C47.9235 16.0152 49.3835 14.8619 52.1569 14.8619C54.8769 14.8619 56.2369 15.8752 56.2369 17.9019V23.3619C56.2369 23.7085 56.4235 23.8819 56.7969 23.8819ZM51.3169 24.1019C52.1702 24.1019 52.8769 23.8619 53.4369 23.3819C53.9969 22.9019 54.2769 22.2219 54.2769 21.3419V20.2619C54.0235 20.4752 53.5969 20.6152 52.9969 20.6819L51.5569 20.8419C50.7835 20.9352 50.2302 21.1219 49.8969 21.4019C49.5635 21.6685 49.3969 22.0485 49.3969 22.5419C49.3969 23.0352 49.5569 23.4219 49.8769 23.7019C50.2102 23.9685 50.6902 24.1019 51.3169 24.1019ZM62.5377 25.6819C59.671 25.6819 58.1643 24.5019 58.0177 22.1419H60.0177C60.0977 22.8619 60.331 23.3685 60.7177 23.6619C61.1043 23.9552 61.7177 24.1019 62.5577 24.1019C64.0777 24.1019 64.8377 23.6219 64.8377 22.6619C64.8377 22.2485 64.6777 21.9285 64.3577 21.7019C64.0377 21.4752 63.4643 21.2885 62.6377 21.1419L61.5777 20.9419C59.391 20.5419 58.2977 19.5152 58.2977 17.8619C58.2977 16.9419 58.651 16.2152 59.3577 15.6819C60.0643 15.1352 61.0377 14.8619 62.2777 14.8619C65.1177 14.8619 66.571 16.0152 66.6377 18.3219H64.6977C64.6577 17.6285 64.4443 17.1419 64.0577 16.8619C63.671 16.5685 63.0777 16.4219 62.2777 16.4219C61.6377 16.4219 61.1443 16.5419 60.7977 16.7819C60.451 17.0219 60.2777 17.3619 60.2777 17.8019C60.2777 18.2019 60.431 18.5152 60.7377 18.7419C61.0443 18.9552 61.531 19.1285 62.1977 19.2619L63.2777 19.4419C64.5443 19.6819 65.4577 20.0419 66.0177 20.5219C66.5777 21.0019 66.8577 21.6685 66.8577 22.5219C66.8577 23.5219 66.4777 24.3019 65.7177 24.8619C64.9577 25.4085 63.8977 25.6819 62.5377 25.6819ZM73.0708 15.1019V16.7419H70.9908V22.9419C70.9908 23.2485 71.0774 23.4752 71.2508 23.6219C71.4374 23.7552 71.7441 23.8219 72.1708 23.8219H73.0708V25.4219C72.6308 25.4619 72.2241 25.4819 71.8508 25.4819C70.8774 25.4819 70.1574 25.2952 69.6908 24.9219C69.2241 24.5485 68.9908 23.9485 68.9908 23.1219V16.7419H67.3308V15.1019H68.9908V12.1419H70.9908V15.1019H73.0708ZM76.6947 13.6419H74.6547V11.5019H76.6947V13.6419ZM76.6747 25.4219H74.6747V15.1019H76.6747V25.4219ZM83.353 25.6619C81.8863 25.6619 80.6996 25.1685 79.793 24.1819C78.8863 23.1952 78.433 21.8885 78.433 20.2619C78.433 18.6219 78.8863 17.3085 79.793 16.3219C80.6863 15.3485 81.873 14.8619 83.353 14.8619C84.6196 14.8619 85.6596 15.2085 86.473 15.9019C87.2996 16.5952 87.793 17.5285 87.953 18.7019H85.913C85.7796 18.0219 85.4796 17.5019 85.013 17.1419C84.5596 16.7819 84.0063 16.6019 83.353 16.6019C82.4863 16.6019 81.793 16.9219 81.273 17.5619C80.7663 18.1885 80.513 19.0885 80.513 20.2619C80.513 21.4352 80.7663 22.3419 81.273 22.9819C81.793 23.6085 82.4863 23.9219 83.353 23.9219C84.0196 23.9219 84.5863 23.7352 85.053 23.3619C85.5196 22.9885 85.813 22.4485 85.933 21.7419H87.973C87.813 22.9419 87.313 23.8952 86.473 24.6019C85.633 25.3085 84.593 25.6619 83.353 25.6619ZM103.121 11.1819H105.841L99.8609 16.9819L105.841 25.4219H103.261L98.3209 18.4219L95.8409 20.8019V25.4219H93.7009V11.1819H95.8409V18.3219L103.121 11.1819ZM114.655 24.1819C113.709 25.1685 112.475 25.6619 110.955 25.6619C109.435 25.6619 108.202 25.1685 107.255 24.1819C106.309 23.1952 105.835 21.8885 105.835 20.2619C105.835 18.6219 106.309 17.3085 107.255 16.3219C108.189 15.3485 109.422 14.8619 110.955 14.8619C112.489 14.8619 113.722 15.3485 114.655 16.3219C115.589 17.2952 116.055 18.6085 116.055 20.2619C116.055 21.9019 115.589 23.2085 114.655 24.1819ZM108.735 22.9619C109.282 23.6152 110.022 23.9419 110.955 23.9419C111.889 23.9419 112.622 23.6152 113.155 22.9619C113.702 22.3085 113.975 21.4085 113.975 20.2619C113.975 19.1152 113.702 18.2152 113.155 17.5619C112.622 16.9085 111.889 16.5819 110.955 16.5819C110.022 16.5819 109.282 16.9085 108.735 17.5619C108.189 18.2152 107.915 19.1152 107.915 20.2619C107.915 21.4085 108.189 22.3085 108.735 22.9619ZM122.153 15.1019V16.7419H120.073V22.9419C120.073 23.2485 120.159 23.4752 120.333 23.6219C120.519 23.7552 120.826 23.8219 121.253 23.8219H122.153V25.4219C121.713 25.4619 121.306 25.4819 120.933 25.4819C119.959 25.4819 119.239 25.2952 118.773 24.9219C118.306 24.5485 118.073 23.9485 118.073 23.1219V16.7419H116.413V15.1019H118.073V12.1419H120.073V15.1019H122.153ZM128.917 14.8619C130.05 14.8619 130.937 15.1819 131.577 15.8219C132.217 16.4485 132.537 17.3419 132.537 18.5019V25.4219H130.537V18.7819C130.537 17.3419 129.81 16.6219 128.357 16.6219C127.69 16.6219 127.09 16.8752 126.557 17.3819C126.023 17.9019 125.757 18.6419 125.757 19.6019V25.4219H123.757V11.1819H125.757V16.5219C126.543 15.4152 127.597 14.8619 128.917 14.8619ZM143.672 23.8819H144.232V25.4219C143.939 25.4619 143.612 25.4819 143.252 25.4819C142.612 25.4819 142.132 25.3685 141.812 25.1419C141.505 24.9019 141.319 24.5285 141.252 24.0219C140.559 25.1152 139.439 25.6619 137.892 25.6619C136.759 25.6619 135.859 25.3952 135.192 24.8619C134.539 24.3152 134.212 23.5619 134.212 22.6019C134.212 20.7352 135.505 19.6685 138.092 19.4019L139.612 19.2419C140.145 19.1752 140.532 19.0419 140.772 18.8419C141.025 18.6285 141.152 18.3285 141.152 17.9419C141.152 17.4219 140.985 17.0485 140.652 16.8219C140.332 16.5819 139.792 16.4619 139.032 16.4619C138.205 16.4619 137.612 16.6019 137.252 16.8819C136.892 17.1485 136.685 17.6285 136.632 18.3219H134.652C134.799 16.0152 136.259 14.8619 139.032 14.8619C141.752 14.8619 143.112 15.8752 143.112 17.9019V23.3619C143.112 23.7085 143.299 23.8819 143.672 23.8819ZM138.192 24.1019C139.045 24.1019 139.752 23.8619 140.312 23.3819C140.872 22.9019 141.152 22.2219 141.152 21.3419V20.2619C140.899 20.4752 140.472 20.6152 139.872 20.6819L138.432 20.8419C137.659 20.9352 137.105 21.1219 136.772 21.4019C136.439 21.6685 136.272 22.0485 136.272 22.5419C136.272 23.0352 136.432 23.4219 136.752 23.7019C137.085 23.9685 137.565 24.1019 138.192 24.1019ZM150.486 18.6419L151.686 15.1019H153.806L149.606 26.7219C149.259 27.7085 148.799 28.4019 148.226 28.8019C147.652 29.2019 146.839 29.4019 145.786 29.4019C145.426 29.4019 145.079 29.3819 144.746 29.3419V27.7219H145.746C146.639 27.7219 147.239 27.3085 147.546 26.4819C147.572 26.4019 147.612 26.2752 147.666 26.1019C147.732 25.9285 147.786 25.7952 147.826 25.7019L144.006 15.1019H146.186L147.386 18.6419C148.026 20.6152 148.539 22.2619 148.926 23.5819C149.446 21.8885 149.966 20.2419 150.486 18.6419Z" fill="#043F2D"/>
</svg>
